<svg id="corn"
     version="1.1"
     xmlns="http://www.w3.org/2000/svg"
     xmlns:xlink="http://www.w3.org/1999/xlink"
     xmlns:a="http://ns.adobe.com/AdobeSVGViewerExtensions/3.0/"
	   x="0px" y="0px"
     viewBox="0 0 280 386" enable-background="new 0 0 280 386"
     xml:space="preserve"
     preserveAspectRatio="xMidYMid meet">
  <g id="corn-bg">
    <path id="corn-bg-white_1_" fill="#FFFFFF" d="M209.6,50.6c-8.2-17.7-19-36.3-37.5-44.7c-20.1-9.2-43.2-7.4-62.1,3.9
                                                  c-7.2,3.6-14.1,8.1-20.4,13.4C70.3,39.2,59.1,62.6,49.8,85.5c-4.9,12-9.3,24.2-13.4,36.6c16.3,3.9,32.6,7.4,48.9,10.6
                                                  c52.6,9,105.9,12.5,158.7,4.2C234.1,107.5,222.6,78.7,209.6,50.6z"/>
    <path id="corn-bg-yellow_1_" fill="#FFFF00" d="M279.1,287.8c-2.4-18.8-5.5-37.6-9.3-56.2c3,14.5,5.5,29,7.6,43.7
                                                   c-54.6,11.9-109.3,13.4-164.4,6.1c-36.4-4.8-72.5-12.3-108.4-20.8l-1.1,6c-2.2,10-3.7,20.2-3.5,30.4c0.4,22,8.9,43.9,26.2,57.8
                                                   c7.8,6.3,16.4,11.2,25.4,15.1c3,1.3,6.1,2.5,9.2,3.6c2.8,1,5.6,1.9,8.4,2.8c19.4,6.6,41.1,8.6,62.1,9.7c2.8,0.1,5.5,0,8.3,0
                                                   c11-0.3,21.6-1.5,32.6-2.3c3-0.4,5.9-0.8,8.9-1.2c8.8-1.4,17.6-3.2,26.3-5.5c19.1-5,38.7-12,53.4-25.9
                                                   C278.2,334.6,282,310.7,279.1,287.8z"/>
    <path id="corn-bg-orange_1_" fill="#FF9100" d="M113.1,281.4c55,7.3,109.8,5.8,164.4-6.1c-6.8-47-18.1-93.4-33.3-138.4
                                                   c-52.8,8.3-106.1,4.8-158.7-4.2c-16.4-3.1-32.7-6.7-48.9-10.6c-11.1,33.5-19.3,68-25,102.8l-6.8,35.8
                                                   C40.6,269.2,76.7,276.6,113.1,281.4z"/>
    <path id="corn-bg-shadow_1_" opacity="0.1" d="M279.1,287.8c-10.3-82.1-34.9-162.4-69.5-237.2c-8.2-17.7-19-36.3-37.5-44.7
                                                  c-6.4-2.9-13-4.7-19.8-5.5c1.2,2.4,2.4,4.7,3.6,7.1c27.9,58.7,50,120.2,65.9,183.3c4,15.9,7.6,32,10.8,48.1
                                                  c7.4,40.4,12.4,81.3,14.7,122.3c4.8-2.9,9.3-6.2,13.4-10.1C278.2,334.6,282,310.7,279.1,287.8z"/>
  </g>
  <g id="corn-eyes">
    <g id="corn-eyes-right">
      <g id="corn-eyes-right">
        <path fill="#212121" d="M204.4,203.1c3.9,17.6-7.1,35.1-24.5,39.1c-17.4,4-34.7-7.1-38.6-24.8c-3.9-17.6,7.1-35.1,24.5-39.1
                                S200.5,185.5,204.4,203.1z"/>
        <g opacity="0.1">
          <path fill="#1A1A1A" d="M172.9,177.6c14.8,0,28.1,10.3,31.5,25.6c3.9,17.6-7.1,35.1-24.5,39.1c-2.4,0.5-4.8,0.8-7.1,0.8
                                  c-14.8,0-28.1-10.3-31.5-25.6c-3.9-17.6,7.1-35.1,24.5-39.1C168.2,177.8,170.6,177.6,172.9,177.6 M172.9,170.6L172.9,170.6
                                  c-2.9,0-5.8,0.3-8.7,1c-21.1,4.8-34.5,26.1-29.8,47.4c2,8.9,6.9,16.8,13.9,22.5c6.9,5.6,15.6,8.6,24.4,8.6c2.9,0,5.8-0.3,8.7-1
                                  c21.1-4.8,34.5-26.1,29.8-47.4c-2-8.9-6.9-16.8-13.9-22.5C190.4,173.6,181.7,170.6,172.9,170.6L172.9,170.6z"/>
        </g>
      </g>
      <g id="corn-eyes-left">
      <path fill="#FFFFFF" d="M185.2,212.6c1.6,7.3-2.9,14.6-10.1,16.2c-7.2,1.6-14.4-3-16-10.3s2.9-14.6,10.1-16.2
                              C176.4,200.7,183.6,205.3,185.2,212.6z"/>
      <path fill="#FFFFFF" d="M188.2,192.3c0.8,3.7-1.5,7.3-5.1,8.1s-7.2-1.5-8-5.1s1.5-7.3,5.1-8.1S187.4,188.6,188.2,192.3z"/>
        </g>
</g>
    <g id="corn-eyes-left">
      <g>
        <ellipse fill="#212121" cx="87.5" cy="204.5" rx="32.3" ry="32.7"/>
        <g opacity="0.1">
          <path fill="#1A1A1A" d="M87.5,171.7c17.9,0,32.3,14.7,32.3,32.7s-14.5,32.7-32.3,32.7c-17.9,0-32.3-14.7-32.3-32.7
                                  S69.6,171.7,87.5,171.7 M87.5,164.7c-21.7,0-39.3,17.8-39.3,39.7s17.6,39.7,39.3,39.7c21.7,0,39.3-17.8,39.3-39.7
                                  S109.2,164.7,87.5,164.7L87.5,164.7z"/>
        </g>
      </g>
      <ellipse fill="#FFFFFF" cx="85.6" cy="209.5" rx="13.4" ry="13.6"/>
      <ellipse fill="#FFFFFF" cx="99.6" cy="190.3" rx="6.7" ry="6.8"/>
</g>
  </g>
  <g id="corn-mouth">
    <g id="corn-mouth-hole">
      <path fill="#212121" d="M177.1,293.5c-1.4,15.7-28.9,38.9-58.9,35.8s-51-32.3-49.6-48.1c1.4-15.7,27-15.8,57-12.7
                              C155.6,271.6,178.5,277.8,177.1,293.5z"/>
      <g opacity="0.1">
        <path fill="#1A1A1A" d="M100.1,266.9c7.8,0,16.5,0.6,25.6,1.6c30,3.1,52.9,9.3,51.5,25c-1.4,14.8-25.7,36-53.4,36
                                c-1.8,0-3.6-0.1-5.5-0.3c-30-3.1-51-32.3-49.6-48.1C69.6,270.3,82.3,266.9,100.1,266.9 M100.1,259.9v7V259.9L100.1,259.9
                                c-10.6,0-18.6,1.2-24.6,3.6c-10.5,4.2-13.3,11.6-13.8,17.1c-0.9,10,4.8,23.1,14.8,34.1c11.3,12.3,25.8,20,41,21.5
                                c2,0.2,4.1,0.3,6.2,0.3c14.2,0,28.7-4.9,40.8-13.8c11.4-8.4,18.8-19.1,19.6-28.6c0.7-7.3-1.9-17.5-18.2-24.4
                                c-9.1-3.8-21.6-6.4-39.5-8.3C115.6,260.4,107.3,259.9,100.1,259.9L100.1,259.9z"/>
      </g>
</g>
    <g id="corn-mouth-teeth">
      <defs>
        <path id="mouth-clip" d="M177.1,293.5c-1.4,15.7-28.9,38.9-58.9,35.8s-51-32.3-49.6-48.1c1.4-15.7,27-15.8,57-12.7
                               C155.6,271.6,178.5,277.8,177.1,293.5z"/>
      </defs>
      <clipPath id="SVGID_2_">
        <use xlink:href="#mouth-clip"  overflow="visible"/>
      </clipPath>
      <g clip-path="url(#SVGID_2_)">
        <path fill="#FFFFFF" d="M107.6,288.8L107.6,288.8c-6.7-0.8-11.4-7-10.6-13.7l3.5-29.1c0.8-6.7,6.9-11.5,13.5-10.7l0,0
                                c6.7,0.8,11.4,7,10.6,13.7l-3.5,29.1C120.3,284.8,114.3,289.6,107.6,288.8z"/>
        <g>
          <defs>
            <path id="SVGID_3_" d="M107.6,288.8L107.6,288.8c-6.7-0.8-11.4-7-10.6-13.7l3.5-29.1c0.8-6.7,6.9-11.5,13.5-10.7l0,0
                                   c6.7,0.8,11.4,7,10.6,13.7l-3.5,29.1C120.3,284.8,114.3,289.6,107.6,288.8z"/>
          </defs>
          <clipPath id="SVGID_4_">
            <use xlink:href="#SVGID_3_"  overflow="visible"/>
          </clipPath>
          <path opacity="0.1" clip-path="url(#SVGID_4_)" d="M124.8,274.4l-5.5-29c-0.9-4.6-4.9-7.8-10-8.6c6.5,9.5,11.1,25.4,6.3,51.9
                                                            c0,0.1,0,0.3-0.1,0.4C121.9,286.1,125.9,280.1,124.8,274.4z"/>
        </g>
      </g>
      <g clip-path="url(#SVGID_2_)">
        <path fill="#FFFFFF" d="M135.6,293.1L135.6,293.1c-6.7-0.8-11.4-7-10.6-13.7l3.5-29.1c0.8-6.7,6.9-11.5,13.5-10.7l0,0
                                c6.7,0.8,11.4,7,10.6,13.7l-3.5,29.1C148.3,289.1,142.2,293.9,135.6,293.1z"/>
        <g>
          <defs>
            <path id="SVGID_5_" d="M135.6,293.1L135.6,293.1c-6.7-0.8-11.4-7-10.6-13.7l3.5-29.1c0.8-6.7,6.9-11.5,13.5-10.7l0,0
                                   c6.7,0.8,11.4,7,10.6,13.7l-3.5,29.1C148.3,289.1,142.2,293.9,135.6,293.1z"/>
          </defs>
          <clipPath id="SVGID_6_">
            <use xlink:href="#SVGID_5_"  overflow="visible"/>
          </clipPath>
          <path opacity="0.1" clip-path="url(#SVGID_6_)" d="M152.7,278.7l-5.5-29c-0.9-4.6-4.9-7.8-10-8.6c6.5,9.5,11.1,25.4,6.3,51.9
                                                            c0,0.1,0,0.3-0.1,0.4C149.8,290.3,153.8,284.3,152.7,278.7z"/>
        </g>
      </g>
</g>
  </g>
</svg>